<?xml version="1.0" encoding="UTF-8" standalone="no"?>
<!DOCTYPE svg PUBLIC "-//W3C//DTD SVG 1.1//EN" "http://www.w3.org/Graphics/SVG/1.1/DTD/svg11.dtd">
<svg width="100%" height="100%" viewBox="0 0 64 64" version="1.1" xmlns="http://www.w3.org/2000/svg" xmlns:xlink="http://www.w3.org/1999/xlink" xml:space="preserve" xmlns:serif="http://www.serif.com/" style="fill-rule:evenodd;clip-rule:evenodd;stroke-linecap:round;stroke-linejoin:round;stroke-miterlimit:1.5;">
    <rect x="0" y="0" width="64" height="64" style="fill:white;"/>
    <rect x="0" y="0" width="32" height="32" style="fill:rgb(92,1,0);"/>
    <g transform="matrix(1,0,0,1,32,32)">
        <rect x="0" y="0" width="32" height="32" style="fill:rgb(92,1,0);"/>
    </g>
    <path d="M32,0L32,64" style="fill:none;stroke:black;stroke-width:3.5px;"/>
    <path d="M0,32L64,32" style="fill:none;stroke:black;stroke-width:3.5px;"/>
    <g transform="matrix(2.47872,0,0,2.47872,-6.52554,4.81263)">
        <path d="M5.15,8.808L8.472,4.332L5.543,0.218L6.896,0.218L8.455,2.422C8.779,2.879 9.009,3.23 9.146,3.476C9.338,3.164 9.564,2.838 9.826,2.498L11.554,0.218L12.791,0.218L9.773,4.267L13.025,8.808L11.619,8.808L9.457,5.744C9.336,5.568 9.211,5.377 9.082,5.17C8.89,5.482 8.754,5.697 8.672,5.814L6.515,8.808L5.15,8.808Z" style="fill:white;fill-rule:nonzero;"/>
    </g>
    <g transform="matrix(2.47872,0,0,2.47872,23.7461,4.81263)">
        <path d="M5.677,4.625C5.677,3.199 6.06,2.083 6.826,1.276C7.591,0.469 8.58,0.066 9.791,0.066C10.584,0.066 11.299,0.256 11.935,0.634C12.572,1.013 13.057,1.542 13.391,2.219C13.725,2.897 13.892,3.666 13.892,4.525C13.892,5.396 13.716,6.175 13.365,6.863C13.013,7.55 12.515,8.071 11.871,8.425C11.226,8.778 10.531,8.955 9.785,8.955C8.976,8.955 8.254,8.759 7.617,8.369C6.98,7.978 6.498,7.445 6.17,6.769C5.841,6.093 5.677,5.379 5.677,4.625ZM6.849,4.642C6.849,5.677 7.128,6.493 7.684,7.089C8.241,7.684 8.939,7.982 9.779,7.982C10.634,7.982 11.339,7.681 11.891,7.08C12.444,6.478 12.72,5.625 12.72,4.519C12.72,3.82 12.602,3.21 12.366,2.688C12.13,2.167 11.784,1.762 11.329,1.475C10.874,1.188 10.363,1.045 9.797,1.045C8.992,1.045 8.299,1.321 7.719,1.874C7.139,2.426 6.849,3.349 6.849,4.642Z" style="fill-rule:nonzero;"/>
    </g>
    <g transform="matrix(2.47872,0,0,2.47872,-8.25386,36.8199)">
        <path d="M5.677,4.625C5.677,3.199 6.06,2.083 6.826,1.276C7.591,0.469 8.58,0.066 9.791,0.066C10.584,0.066 11.299,0.256 11.935,0.634C12.572,1.013 13.057,1.542 13.391,2.219C13.725,2.897 13.892,3.666 13.892,4.525C13.892,5.396 13.716,6.175 13.365,6.863C13.013,7.55 12.515,8.071 11.871,8.425C11.226,8.778 10.531,8.955 9.785,8.955C8.976,8.955 8.254,8.759 7.617,8.369C6.98,7.978 6.498,7.445 6.17,6.769C5.841,6.093 5.677,5.379 5.677,4.625ZM6.849,4.642C6.849,5.677 7.128,6.493 7.684,7.089C8.241,7.684 8.939,7.982 9.779,7.982C10.634,7.982 11.339,7.681 11.891,7.08C12.444,6.478 12.72,5.625 12.72,4.519C12.72,3.82 12.602,3.21 12.366,2.688C12.13,2.167 11.784,1.762 11.329,1.475C10.874,1.188 10.363,1.045 9.797,1.045C8.992,1.045 8.299,1.321 7.719,1.874C7.139,2.426 6.849,3.349 6.849,4.642Z" style="fill-rule:nonzero;"/>
    </g>
    <g transform="matrix(2.47872,0,0,2.47872,25.4745,36.8126)">
        <path d="M5.15,8.808L8.472,4.332L5.543,0.218L6.896,0.218L8.455,2.422C8.779,2.879 9.009,3.23 9.146,3.476C9.338,3.164 9.564,2.838 9.826,2.498L11.554,0.218L12.791,0.218L9.773,4.267L13.025,8.808L11.619,8.808L9.457,5.744C9.336,5.568 9.211,5.377 9.082,5.17C8.89,5.482 8.754,5.697 8.672,5.814L6.515,8.808L5.15,8.808Z" style="fill:white;fill-rule:nonzero;"/>
    </g>
</svg>
